<?xml version="1.0" encoding="UTF-8" standalone="no"?><!DOCTYPE svg PUBLIC "-//W3C//DTD SVG 1.1//EN" "http://www.w3.org/Graphics/SVG/1.1/DTD/svg11.dtd"><svg width="100%" height="100%" viewBox="0 0 212 110" version="1.1" xmlns="http://www.w3.org/2000/svg" xmlns:xlink="http://www.w3.org/1999/xlink" xml:space="preserve" xmlns:serif="http://www.serif.com/" style="fill-rule:evenodd;clip-rule:evenodd;stroke-miterlimit:2.5;"><g id="Specificity-Components" serif:id="Specificity Components"><path d="M10,83l10,-6l8,3l7,-5l8,-7l7,17l8,-39l8,27l7,8l8,-18l8,-8l7,-40.22l7,58.22l8,-22l8,4l8,-6l7,25l8,-2l15,-32l8,15l7,-29l7,35l8,18l8,-15l7,12l8,-1l0,26l-200,0l0,-18Z" style="fill:#ff006f;fill-opacity:0.2;"/><path d="M10,82.5l0.833,0l9.167,-5.5l8,3l7,-5l8,-7l7,17l8,-39l8,27l7,8l8,-18l8,-8l7,-40.22l7,58.22l8,-22l8,4l8,-6l7,25l8,-2l15,-32l8,15l7,-29l7,35l8,18l8,-15l7,12l8,-1" style="fill:none;stroke:#ff006f;stroke-width:1.5px;"/><path d="M10,1l0,100l200,0" style="fill:none;stroke:#fff;stroke-width:0.5px;stroke-linecap:round;"/><path d="M28,101l0,-100" style="fill:none;stroke:#fff;stroke-width:0.5px;stroke-linecap:round;stroke-dasharray:0.5,1.5,0,0;"/><path d="M43,101l0,-100" style="fill:none;stroke:#fff;stroke-width:0.5px;stroke-linecap:round;stroke-dasharray:0.5,1.5,0,0;"/><path d="M73,101l0,-100" style="fill:none;stroke:#fff;stroke-width:0.5px;stroke-linecap:round;stroke-dasharray:0.5,1.5,0,0;"/><g transform="matrix(6.12323e-17,-1,1,6.12323e-17,-773.318,-49.3184)"><text x="-78.318px" y="779.318px" style="font-family:'Helvetica-Bold', 'Helvetica';font-weight:700;font-size:6px;fill:#fff;">S<tspan x="-74.616px -71.251px -68.214px -65.178px -63.811px -60.446px -57.409px -56.042px -54.344px " y="779.318px 779.318px 779.318px 779.318px 779.318px 779.318px 779.318px 779.318px 779.318px ">peciï¬city</tspan></text></g><g transform="matrix(6.12323e-17,-1,1,6.12323e-17,-750.659,-26.6592)"><text x="-43.507px" y="777.159px" style="font-family:'Helvetica-Bold', 'Helvetica';font-weight:700;font-size:3px;fill:#fff;">_<tspan x="-41.988px -40.971px -39.452px -37.934px -36.416px -35.567px -34.883px -33.365px -31.846px -30.328px " y="777.159px 777.159px 777.159px 777.159px 777.159px 777.159px 777.159px 777.159px 777.159px 777.159px ">reset.scss</tspan></text></g><g transform="matrix(6.12323e-17,-1,1,6.12323e-17,-735.659,-11.6592)"><text x="-36.919px" y="777.159px" style="font-family:'Helvetica-Bold', 'Helvetica';font-weight:700;font-size:3px;fill:#fff;">_<tspan x="-35.401px -34.552px -33.033px -31.351px -29.668px -27.986px -26.968px -25.45px -23.767px -22.085px -20.567px -19.883px -18.365px -16.846px -15.328px " y="777.159px 777.159px 777.159px 777.159px 777.159px 777.159px 777.159px 777.159px 777.159px 777.159px 777.159px 777.159px 777.159px 777.159px 777.159px ">typography.scss</tspan></text></g><g transform="matrix(6.12323e-17,-1,1,6.12323e-17,-705.58,18.4204)"><text x="-0.943px" y="777.159px" style="font-family:'Helvetica-Bold', 'Helvetica';font-weight:700;font-size:3px;fill:#fff;">_<tspan x="0.575px 2.258px 3.776px 5.295px 6.977px 8.496px 9.513px 10.197px 11.715px 13.233px 14.752px " y="777.159px 777.159px 777.159px 777.159px 777.159px 777.159px 777.159px 777.159px 777.159px 777.159px 777.159px ">header.scss</tspan></text></g><path d="M96,101l0,-100" style="fill:none;stroke:#fff;stroke-width:0.5px;stroke-linecap:round;stroke-dasharray:0.5,1.5,0,0;"/><g transform="matrix(6.12323e-17,-1,1,6.12323e-17,-682.58,41.4204)"><text x="26.275px" y="777.159px" style="font-family:'Helvetica-Bold', 'Helvetica';font-weight:700;font-size:3px;fill:#fff;">_<tspan x="27.794px 29.476px 30.995px 32.513px 33.197px 34.715px 36.233px 37.752px " y="777.159px 777.159px 777.159px 777.159px 777.159px 777.159px 777.159px 777.159px ">nav.scss</tspan></text></g><path d="M127,101l0,-100" style="fill:none;stroke:#fff;stroke-width:0.5px;stroke-linecap:round;stroke-dasharray:0.5,1.5,0,0;"/><g transform="matrix(6.12323e-17,-1,1,6.12323e-17,-651.58,72.4204)"><text x="52.373px" y="777.159px" style="font-family:'Helvetica-Bold', 'Helvetica';font-weight:700;font-size:3px;fill:#fff;">_<tspan x="53.892px 55.41px 56.094px 57.776px 59.295px 60.977px 62.496px 63.513px 64.197px 65.715px 67.233px 68.752px " y="777.159px 777.159px 777.159px 777.159px 777.159px 777.159px 777.159px 777.159px 777.159px 777.159px 777.159px 777.159px ">sidebar.scss</tspan></text></g><text x="186.101px" y="108px" style="font-family:'Helvetica-Bold', 'Helvetica';font-weight:700;font-size:6px;fill:#fff;">L<tspan x="189.466px 192.831px 195.868px 198.905px 200.603px 201.97px 205.335px " y="108px 108px 108px 108px 108px 108px 108px ">ocation</tspan></text><path d="M157,101l0,-100" style="fill:none;stroke:#fff;stroke-width:0.5px;stroke-linecap:round;stroke-dasharray:0.5,1.5,0,0;"/><g transform="matrix(6.12323e-17,-1,1,6.12323e-17,-621.58,102.42)"><text x="84.396px" y="777.159px" style="font-family:'Helvetica-Bold', 'Helvetica';font-weight:700;font-size:3px;fill:#fff;">_<tspan x="85.914px 86.763px 88.446px 90.128px 90.977px 92.496px 93.513px 94.197px 95.715px 97.233px 98.752px " y="777.159px 777.159px 777.159px 777.159px 777.159px 777.159px 777.159px 777.159px 777.159px 777.159px 777.159px ">footer.scss</tspan></text></g><path d="M187,101l0,-100" style="fill:none;stroke:#fff;stroke-width:0.5px;stroke-linecap:round;stroke-dasharray:0.5,1.5,0,0;"/><g transform="matrix(6.12323e-17,-1,1,6.12323e-17,-591.58,132.42)"><text x="113.227px" y="777.159px" style="font-family:'Helvetica-Bold', 'Helvetica';font-weight:700;font-size:3px;fill:#fff;">_<tspan x="114.745px 117.263px 118.945px 120.628px 121.311px 121.995px 123.513px 124.197px 125.715px 127.233px 128.752px " y="777.159px 777.159px 777.159px 777.159px 777.159px 777.159px 777.159px 777.159px 777.159px 777.159px 777.159px ">mobile.scss</tspan></text></g></g></svg>