<?xml version="1.0" encoding="UTF-8" standalone="no"?><!DOCTYPE svg PUBLIC "-//W3C//DTD SVG 1.1//EN" "http://www.w3.org/Graphics/SVG/1.1/DTD/svg11.dtd"><svg width="100%" height="100%" viewBox="0 0 212 110" version="1.1" xmlns="http://www.w3.org/2000/svg" xmlns:xlink="http://www.w3.org/1999/xlink" xml:space="preserve" xmlns:serif="http://www.serif.com/" style="fill-rule:evenodd;clip-rule:evenodd;stroke-linecap:square;stroke-miterlimit:2.5;"><g id="Specificity-Expectation" serif:id="Specificity Expectation"><path d="M210,23l0,78l-200,0l0,-20.52c0.124,0.003 137.846,3.178 200,-57.48Z" style="fill:#ff006f;fill-opacity:0.2;"/><path d="M10.789,80.971c0,0 137.837,3.188 199.211,-56.971" style="fill:none;stroke:#ff006f;stroke-width:1.5px;"/><path d="M10,1l0,100l200,0" style="fill:none;stroke:#fff;stroke-width:0.5px;stroke-linecap:round;"/><g transform="matrix(6.12323e-17,-1,1,6.12323e-17,-773.318,-49.3184)"><text x="-78.318px" y="779.318px" style="font-family:'Helvetica-Bold', 'Helvetica';font-weight:700;font-size:6px;fill:#fff;">S<tspan x="-74.616px -71.251px -68.214px -65.178px -63.811px -60.446px -57.409px -56.042px -54.344px " y="779.318px 779.318px 779.318px 779.318px 779.318px 779.318px 779.318px 779.318px 779.318px ">peciﬁcity</tspan></text></g><text x="186.101px" y="108px" style="font-family:'Helvetica-Bold', 'Helvetica';font-weight:700;font-size:6px;fill:#fff;">L<tspan x="189.466px 192.831px 195.868px 198.905px 200.603px 201.97px 205.335px " y="108px 108px 108px 108px 108px 108px 108px ">ocation</tspan></text></g></svg>