<?xml version="1.0" encoding="UTF-8" standalone="no"?><!DOCTYPE svg PUBLIC "-//W3C//DTD SVG 1.1//EN" "http://www.w3.org/Graphics/SVG/1.1/DTD/svg11.dtd"><svg width="100%" height="100%" viewBox="0 0 204 110" version="1.1" xmlns="http://www.w3.org/2000/svg" xmlns:xlink="http://www.w3.org/1999/xlink" xml:space="preserve" xmlns:serif="http://www.serif.com/" style="fill-rule:evenodd;clip-rule:evenodd;stroke-linecap:round;stroke-miterlimit:2.5;"><g id="Selectors-Max" serif:id="Selectors Max"><rect x="10" y="37" width="24" height="64" style="fill:url(#_Linear1);"/><rect x="50" y="53" width="24" height="48" style="fill:url(#_Linear2);"/><rect x="90" y="55" width="24" height="46" style="fill:url(#_Linear3);"/><text x="11.083px" y="108px" style="font-family:'Helvetica-Bold', 'Helvetica';font-weight:700;font-size:6px;fill:#fff;">A<tspan x="15.116px 20.15px 23.187px 25.887px 29.252px " y="108px 108px 108px 108px 108px ">mazon</tspan></text><text x="54.267px" y="108px" style="font-family:'Helvetica-Bold', 'Helvetica';font-weight:700;font-size:6px;fill:#fff;">A<tspan x="58.3px 61.665px 65.03px 66.397px " y="108px 108px 108px 108px ">pple</tspan></text><text x="93.067px" y="108px" style="font-family:'Helvetica-Bold', 'Helvetica';font-weight:700;font-size:6px;fill:#fff;">T<tspan x="96.432px 100.799px 102.166px 103.864px 105.562px 108.599px " y="108px 108px 108px 108px 108px 108px ">witter</tspan></text><text x="18.813px" y="35px" style="font-family:'Helvetica-Bold', 'Helvetica';font-weight:700;font-size:6px;fill:#fff;">3<tspan x="21.85px " y="35px ">2</tspan></text><text x="58.813px" y="51px" style="font-family:'Helvetica-Bold', 'Helvetica';font-weight:700;font-size:6px;fill:#fff;">2<tspan x="61.85px " y="51px ">4</tspan></text><text x="98.813px" y="53px" style="font-family:'Helvetica-Bold', 'Helvetica';font-weight:700;font-size:6px;fill:#fff;">2<tspan x="101.85px " y="53px ">3</tspan></text><rect x="130" y="69" width="24" height="32" style="fill:url(#_Linear4);"/><text x="132.417px" y="108px" style="font-family:'Helvetica-Bold', 'Helvetica';font-weight:700;font-size:6px;fill:#fff;">G<tspan x="136.784px 140.149px 143.514px 146.879px 148.246px " y="108px 108px 108px 108px 108px ">oogle</tspan></text><text x="138.813px" y="67px" style="font-family:'Helvetica-Bold', 'Helvetica';font-weight:700;font-size:6px;fill:#fff;">1<tspan x="141.85px " y="67px ">6</tspan></text><rect x="170" y="71" width="24" height="30" style="fill:url(#_Linear5);"/><text x="167.509px" y="108px" style="font-family:'Helvetica-Bold', 'Helvetica';font-weight:700;font-size:6px;fill:#fff;">C<tspan x="171.542px 175.244px 178.946px 180.313px 183.678px 185.713px 187.08px 190.117px 193.154px " y="108px 108px 108px 108px 108px 108px 108px 108px 108px ">SS Tricks</tspan></text><text x="178.813px" y="69px" style="font-family:'Helvetica-Bold', 'Helvetica';font-weight:700;font-size:6px;fill:#fff;">1<tspan x="181.85px " y="69px ">5</tspan></text><g><path d="M2,101l200,0" style="fill:none;stroke:#fff;stroke-width:0.5px;stroke-dasharray:0.5,2,0,0;"/><path d="M2,81l200,0" style="fill:none;stroke:#fff;stroke-width:0.5px;stroke-dasharray:0.5,2,0,0;"/><path d="M2,61l200,0" style="fill:none;stroke:#fff;stroke-width:0.5px;stroke-dasharray:0.5,2,0,0;"/><path d="M2,41l200,0" style="fill:none;stroke:#fff;stroke-width:0.5px;stroke-dasharray:0.5,2,0,0;"/><path d="M2,21l200,0" style="fill:none;stroke:#fff;stroke-width:0.5px;stroke-dasharray:0.5,2,0,0;"/><path d="M2,101l200,0" style="fill:none;stroke:#fff;stroke-width:0.5px;"/><path d="M2,81l200,0" style="fill:none;stroke:#fff;stroke-width:0.5px;stroke-dasharray:0.5,2,0,0;"/><path d="M2,61l200,0" style="fill:none;stroke:#fff;stroke-width:0.5px;stroke-dasharray:0.5,2,0,0;"/><path d="M2,41l200,0" style="fill:none;stroke:#fff;stroke-width:0.5px;stroke-dasharray:0.5,2,0,0;"/><path d="M2,1l200,0" style="fill:none;stroke:#fff;stroke-width:0.5px;stroke-dasharray:0.5,2,0,0;"/></g></g><defs><linearGradient id="_Linear1" x1="0" y1="0" x2="1" y2="0" gradientUnits="userSpaceOnUse" gradientTransform="matrix(4.52177e-15,-64,73.8462,3.91887e-15,22,101)"><stop offset="0" style="stop-color:#4d1a32;stop-opacity:1"/><stop offset="1" style="stop-color:#ff006f;stop-opacity:1"/></linearGradient><linearGradient id="_Linear2" x1="0" y1="0" x2="1" y2="0" gradientUnits="userSpaceOnUse" gradientTransform="matrix(4.52177e-15,-48,73.8462,2.93915e-15,62,101)"><stop offset="0" style="stop-color:#4d1a32;stop-opacity:1"/><stop offset="1" style="stop-color:#ff006f;stop-opacity:1"/></linearGradient><linearGradient id="_Linear3" x1="0" y1="0" x2="1" y2="0" gradientUnits="userSpaceOnUse" gradientTransform="matrix(4.52177e-15,-46,73.8462,2.81669e-15,102,101)"><stop offset="0" style="stop-color:#4d1a32;stop-opacity:1"/><stop offset="1" style="stop-color:#ff006f;stop-opacity:1"/></linearGradient><linearGradient id="_Linear4" x1="0" y1="0" x2="1" y2="0" gradientUnits="userSpaceOnUse" gradientTransform="matrix(4.52177e-15,-32,73.8462,1.95943e-15,142,101)"><stop offset="0" style="stop-color:#4d1a32;stop-opacity:1"/><stop offset="1" style="stop-color:#ff006f;stop-opacity:1"/></linearGradient><linearGradient id="_Linear5" x1="0" y1="0" x2="1" y2="0" gradientUnits="userSpaceOnUse" gradientTransform="matrix(4.52177e-15,-30,73.8462,1.83697e-15,182,101)"><stop offset="0" style="stop-color:#4d1a32;stop-opacity:1"/><stop offset="1" style="stop-color:#ff006f;stop-opacity:1"/></linearGradient></defs></svg>